<svg id="Capa_1" data-name="Capa 1" xmlns="http://www.w3.org/2000/svg" viewBox="0 0 228.52 227.47"><defs><style>.cls-1{fill:#00358e;}</style></defs>

<path class="cls-1" d="M71.38,124.42C66.6,123,62.94,122,59.44,120.75A31.53,31.53,0,0,1,39.11,82.92C43.39,67.09,54.69,58.58,68.18,52a3.69,3.69,0,0,1,2.28,0A2,2,0,0,1,72,54.23a4.49,4.49,0,0,1-.79,2.49C68,60.31,64.5,63.63,61.05,67c-8.6,8.42-5.14,24,1.51,29.84a10.82,10.82,0,0,0,6.69,2.25c3.26,0,6.54-1,9.78-1.67,4.63-1,6.55-5.82,2.93-8.84-7.22-6-4.82-12.14-1.45-18.68,1.43-2.79,2.31-5.91,4-8.51a15.82,15.82,0,0,1,5-4.3c3-1.85,6.38-3.12,9.25-5.12,4.1-2.86,8.18-4.93,13.42-3.91a34.17,34.17,0,0,0,8.45.51c1.86-.12,4.53-.54,5.35-1.8,4.27-6.58,10.23-6.2,16.39-4.31a32.6,32.6,0,0,0,19.55,0c6-1.79,11.79-2.26,16,4.08.87,1.3,3.39,2,5.2,2.07,3.13.18,6.34-.7,9.45-.42,3.52.32,7.5.57,10.33,2.37,4.29,2.71,7.83,6.49,13.31,7a4.07,4.07,0,0,1,2.58,2.15c2.64,5.54,5.29,11.08,7.53,16.78,1.52,3.85.55,7.23-2.56,10.42-1.69,1.75-3.07,5.08-2.59,7.25.37,1.62,3.84,2.8,6.12,3.65A15,15,0,0,0,234.11,99c2.75-.34,6.12-.94,7.93-2.74,8.05-8,8.12-21.41.51-29.79-3-3.32-6.46-6.25-9.46-9.59a4.23,4.23,0,0,1-.83-1.73,2.52,2.52,0,0,1,1.91-3.1,3.1,3.1,0,0,1,1.94,0c14.23,6.72,25.5,16.07,29.38,32.38,3.59,15.07-1.9,27.52-16,34.23-3.87,1.83-8.12,2.89-12.22,4.22s-4.71,3.28-1.94,6.33c5.88,6.48,6,8.55,1.26,15.93-4.92,7.69-12,13-19.84,17.08-5,2.63-8,6.1-8.39,11.89-.36,4.8-1.43,9.54-1.93,14.33-1.64,15.66-10.22,27.84-19.55,39.71-1.92,2.44-3.19,5.38-4.74,8.09-1.23,2.15-2,4.81-3.74,6.38-4.14,3.7-7.19,7.74-7.64,13.48a1.75,1.75,0,0,1-.57,1,2.26,2.26,0,0,1-3.09.11,4.62,4.62,0,0,1-1-1.19c-.7-1.24-.89-2.76-1.7-5.53-1.45,2.28-2.75,3.51-3.05,5-.75,3.56-.9,7.24-1.6,10.82a4.29,4.29,0,0,1-.77,1.58,2,2,0,0,1-3,.27,14.37,14.37,0,0,1-1.27-1.32,39.29,39.29,0,0,1-2.44-3.65c-.85,1.15-1.66,2.32-2.56,3.42-.35.44-.73.86-1.11,1.28a2.13,2.13,0,0,1-3.23-.09,4.15,4.15,0,0,1-.93-1.7c-.66-3.23-.64-6.6-1.25-9.85-.3-1.65-1.36-3.16-2.07-4.73l-1.3.09a30.62,30.62,0,0,1-1.53,4.69c-.47.91-1.79,2.24-2.35,2.07-1-.3-2.42-1.51-2.49-2.43-.38-5.54-3.21-9.53-7.27-12.9a8.33,8.33,0,0,1-1.46-1.62q-9.84-15.52-19.64-31.06c-6.37-10.07-7.43-21.61-8.62-33-.78-7.39-3.3-12.62-10.4-16a43.21,43.21,0,0,1-20-18.94c-3-5.68-2.58-7.78,1.86-12.34C69.2,128.67,70,126.71,71.38,124.42ZM82.25,80c3.87.85,6.18,1.11,8.38,2.54s4.86,4.36,4.76,6.52c-.31,6.91,3.15,11.45,8.44,16.43a103,103,0,0,1,16.75,21.37c1.6,2.59,4.66,5.39,5.9,8.69,4.47,11.82,8.72,23.71,13.1,35.55,4.28,11.58,4.31,11.46,16.57,11.41,3.17,0,4.74-1,5.82-4q7.31-20.3,15.06-40.44a35.43,35.43,0,0,1,5-8.93c7.4-9.55,15.14-18.84,22.65-28.31a16.64,16.64,0,0,0,4.07-11.92c-.12-2.09,2.7-5,4.91-6.41s4.75-1.54,8.76-2.42c-4-6.76-2.91-18.24-15.1-19.38A1.84,1.84,0,0,1,206.1,60c-5.18-8-12.71-7.44-20.86-6.55-3.39.37-8.4-.74-10.31-3.09-3.33-4.09-7-4.46-10.94-3.32a43,43,0,0,1-24.05,0c-2.56-.7-7.16-.5-8.23,1.06-4.23,6.18-9.81,5.84-16,5.29-3.54-.32-7.53-.59-10.69.68-5.14,2.08-8.1,8.42-14.76,8-.33,0-.83.59-1,1A154.33,154.33,0,0,0,82.25,80Zm-5.58,23.19c-.35,7.46-.44,14.63-1.13,21.74-.25,2.62-1.2,6.07-3.08,7.48-4.62,3.46-3.06,6.4-.74,10.1C76.52,150.2,83.81,155,91.44,159c6.64,3.52,8.93,8.94,9.35,15.77,1.15,18.85,7.23,35.67,20,49.95,2.57,2.87,3.73,6.95,6,10.1,3.1,4.2,6.69,8,10.07,12,7.88-2,9.65,3.39,11.44,9.13.32,1,2.45,2.19,3.65,2.09,1.42-.12,3.58-1.27,3.94-2.44,1.75-5.65,3.62-10.68,11.19-8.79a1.06,1.06,0,0,0,.88-.33c3.09-3.67,6.38-7.19,9.13-11.1s4.52-8.46,7.42-12.19c8.81-11.32,16.13-23.2,17.41-38,.44-5.13,1.43-10.2,2.23-15.3.67-4.35,2.61-7.65,6.84-9.71a40.64,40.64,0,0,0,9.6-6.22,169.73,169.73,0,0,0,12.69-13.17c2.31-2.59,2-4.94-.79-7.67a14.46,14.46,0,0,1-3.88-8.16c-.84-7.24-.9-14.58-1.26-21.75-10.57-2.6-10.57-2.6-12.09-16.62-.69,1.25-1.53,2-1.46,2.77.59,6.56-2.82,11.47-6.54,16.23-4.42,5.64-8.51,11.62-13.48,16.72-9,9.21-14.13,20.35-18.12,32.26-1.49,4.42-3.08,8.81-4.85,13.88,11.46-3.71,18.49-11.26,24.88-19.38,1.88-2.38,2.61-5.78,3.48-8.82.76-2.63.17-6,1.58-8,5.24-7.7,11-15.06,16.75-22.39a3.38,3.38,0,0,1,1.74-1,1.84,1.84,0,0,1,2.4,1.71,4,4,0,0,1-.47,2.24c-4.1,5.86-8.3,11.69-12.88,17.18-3.2,3.84-4.16,8-4.5,12.82a17.25,17.25,0,0,1-3.25,8.33c-7.71,10.81-18.12,18.34-30,24-1.38.66-2.39,2.12-3.73,3.35,8.94,5.95,11.15,9.07,9.52,12.8a11.78,11.78,0,0,1-14.22,6.36c-5.39,7.13-14.05,7.08-20.43-.13-5.41,2.26-10.79.44-13.4-5.85-3.23-7.74,5-9,9.09-13.67-1.53-1.13-2.86-2.51-4.48-3.25a79.13,79.13,0,0,1-29.36-23.33c-2.16-2.73-3.84-5.22-3.44-8.89.52-4.69-1.12-8.67-4.17-12.37-4.44-5.39-8.59-11-12.58-16.78a4.76,4.76,0,0,1-.69-2.18,1.83,1.83,0,0,1,2.49-1.91,4.56,4.56,0,0,1,2,1.27c5.48,6.92,10.75,14,15.91,21.16a8,8,0,0,1,1.63,5c-.7,6.35,1.56,11.24,6.23,15.4,2.35,2.1,4,5.06,6.44,6.95,4.62,3.52,9.62,6.55,14.46,9.78l1.43-1.14c-2.86-7.53-6.06-15-8.5-22.62a50.21,50.21,0,0,0-10.14-17.5c-6.58-7.73-12.81-15.76-19.07-23.77-3.21-4.12-5.79-8.54-5.16-14.17.09-.81-.88-1.74-1.36-2.62C89.65,97.43,86.8,101.7,76.67,103.21ZM248.84,65.48c1.68,5.93,4.23,13.55,3.79,18.39-1,10.95-7.67,21.55-20.79,20.77.72,3.7,1,7.27,2.23,10.5.44,1.17,3.27,2.45,4.61,2.11,10-2.54,19.26-6.75,22-17.84C263.66,87.69,258.23,73.87,248.84,65.48ZM72.43,104.63c-10.14-.15-15.72-4.07-19.06-12.66-2.95-7.6-.85-18.77,3.17-26.93C43.87,69.81,40.78,90.1,43.25,99.25c2.37,8.73,14.53,18.43,23.36,18.42a4,4,0,0,0,3.1-1.86C70.84,112.25,71.52,108.56,72.43,104.63ZM136.81,185c-.41.78-3.81,3.4-3.6,4.72s2,2.85,3.42,3.21,3.14-.51,4.64-1.09c2.46-1,4.85-1.39,5.36,2,.53,3.54,2.76,3.49,5.41,3.48s4.94.17,5.41-3.45c.37-2.88,2.55-3.14,4.93-2.21,1.08.42,2.26,1.49,3.16,1.28,1.75-.42,3.89-1,4.9-2.47,1.14-1.68-2.32-5.44-2.32-5.44-1.51,1.15-1.32,2.14-2.83,2.24s-2.58.43-4,.45c-5.65.09-11.31.19-16.95,0A12.41,12.41,0,0,1,136.81,185Z" transform="translate(-38.04 -41.26)"/>


</svg>